<?xml version="1.0" encoding="UTF-8"?>
<svg version="1.1" xmlns="http://www.w3.org/2000/svg" width="32" height="32">
<path d="M0 0 C1.32 0 2.64 0 4 0 C4.22429688 0.77085938 4.44859375 1.54171875 4.6796875 2.3359375 C6.34058645 5.68721881 7.75741598 6.13789025 11.125 7.625 C13.84375 9.109375 13.84375 9.109375 16 11 C16.88055884 14.79478929 16.61255642 18.17492544 16 22 C14.02 22.99 14.02 22.99 12 24 C11 21 11 21 11.3125 18.0625 C11.209375 17.051875 11.10625 16.04125 11 15 C8.04181498 12.78989263 8.04181498 12.78989263 5 11 C4.97873047 12.89685547 4.97873047 12.89685547 4.95703125 14.83203125 C4.91013315 16.49222412 4.86188574 18.15237927 4.8125 19.8125 C4.80669922 20.64587891 4.80089844 21.47925781 4.79492188 22.33789062 C4.57490234 28.42509766 4.57490234 28.42509766 1.9375 31.0625 C-1.70318157 32.22441965 -5.03842659 32.32835059 -8.8125 32.1875 C-9.85180664 32.16719727 -9.85180664 32.16719727 -10.91210938 32.14648438 C-12.60841265 32.11138845 -14.30431136 32.05758943 -16 32 C-16 29.69 -16 27.38 -16 25 C-9.89457971 21.88233858 -7.50423921 22 0 22 C0 14.74 0 7.48 0 0 Z " fill="#000000" transform="translate(16,0)"/>
</svg>
